<svg width="96.00" height="96.00" viewBox="0.00 0.00 480.00 480.00" xmlns="http://www.w3.org/2000/svg" xmlns:xlink="http://www.w3.org/1999/xlink">
<g stroke-linecap="round" id="vector">
<path d="M163.50,63.00 Q224.25,123.75 285.00,184.50 Q225.00,220.00 165.00,255.50 Q227.77,313.90 283.62,366.39 Q282.81,366.81 285.44,367.73 Q285.27,239.19 285.54,113.75 Q285.52,113.42 285.50,113.08 Q285.40,113.03 285.29,112.99 Q288.58,56.74 237.63,59.17 Q236.49,59.22 235.58,59.12 Q234.67,59.01 233.61,59.10 Q196.77,59.00 160.79,59.00 Q162.80,61.30 164.20,63.04 Q162.13,60.85 161.00,60.50 Q161.00,191.10 160.18,321.69 Q161.24,320.02 160.51,321.73 Q157.79,368.36 199.41,369.17 Q199.41,369.17 200.48,369.36 Q201.54,369.54 200.83,369.42 Q243.27,369.27 285.22,368.78" fill="none" stroke="rgb(15, 24, 35)" stroke-width="10.00" stroke-opacity="1.00" stroke-linejoin="round"/>
<path d="M163.50,141.50 L242.00,141.50" fill="none" stroke="rgb(15, 24, 35)" stroke-width="10.00" stroke-opacity="1.00" stroke-linejoin="round"/>
</g>
</svg>
